<svg width="41" height="40" viewBox="0 0 41 40" fill="none" xmlns="http://www.w3.org/2000/svg">
<path d="M38.715 34.0385H37.38V16.6835C37.38 15.9754 37.0987 15.2962 36.598 14.7955C36.0972 14.2948 35.4181 14.0135 34.71 14.0135H24.03V6.0035C24.03 5.29537 23.7487 4.61624 23.248 4.11552C22.7472 3.6148 22.0681 3.3335 21.36 3.3335H5.34C4.63187 3.3335 3.95275 3.6148 3.45202 4.11552C2.9513 4.61624 2.67 5.29537 2.67 6.0035V34.0385H1.335C0.980936 34.0385 0.641373 34.1791 0.391012 34.4295C0.140651 34.6799 0 35.0194 0 35.3735C0 35.7276 0.140651 36.0671 0.391012 36.3175C0.641373 36.5678 0.980936 36.7085 1.335 36.7085H38.715C39.069 36.7085 39.4086 36.5678 39.659 36.3175C39.9093 36.0671 40.05 35.7276 40.05 35.3735C40.05 35.0194 39.9093 34.6799 39.659 34.4295C39.4086 34.1791 39.069 34.0385 38.715 34.0385ZM18.69 22.0235C18.69 22.3776 18.5493 22.7171 18.299 22.9675C18.0486 23.2178 17.7091 23.3585 17.355 23.3585H12.015C11.6609 23.3585 11.3214 23.2178 11.071 22.9675C10.8206 22.7171 10.68 22.3776 10.68 22.0235C10.68 21.6694 10.8206 21.3299 11.071 21.0795C11.3214 20.8291 11.6609 20.6885 12.015 20.6885H17.355C17.7091 20.6885 18.0486 20.8291 18.299 21.0795C18.5493 21.3299 18.69 21.6694 18.69 22.0235ZM9.345 10.0085H14.685C15.0391 10.0085 15.3786 10.1491 15.629 10.3995C15.8793 10.6499 16.02 10.9894 16.02 11.3435C16.02 11.6976 15.8793 12.0371 15.629 12.2875C15.3786 12.5378 15.0391 12.6785 14.685 12.6785H9.345C8.99093 12.6785 8.65137 12.5378 8.40101 12.2875C8.15065 12.0371 8.01 11.6976 8.01 11.3435C8.01 10.9894 8.15065 10.6499 8.40101 10.3995C8.65137 10.1491 8.99093 10.0085 9.345 10.0085ZM9.345 27.3635H14.685C15.0391 27.3635 15.3786 27.5041 15.629 27.7545C15.8793 28.0049 16.02 28.3444 16.02 28.6985C16.02 29.0526 15.8793 29.3921 15.629 29.6425C15.3786 29.8928 15.0391 30.0335 14.685 30.0335H9.345C8.99093 30.0335 8.65137 29.8928 8.40101 29.6425C8.15065 29.3921 8.01 29.0526 8.01 28.6985C8.01 28.3444 8.15065 28.0049 8.40101 27.7545C8.65137 27.5041 8.99093 27.3635 9.345 27.3635ZM24.03 16.6835H34.71V34.0385H24.03V16.6835Z" fill="white"/>
<path d="M30 27.9585H27.5C27.1685 27.9585 26.8505 28.0902 26.6161 28.3246C26.3817 28.559 26.25 28.877 26.25 29.2085C26.25 29.54 26.3817 29.858 26.6161 30.0924C26.8505 30.3268 27.1685 30.4585 27.5 30.4585H30C30.3315 30.4585 30.6495 30.3268 30.8839 30.0924C31.1183 29.858 31.25 29.54 31.25 29.2085C31.25 28.877 31.1183 28.559 30.8839 28.3246C30.6495 28.0902 30.3315 27.9585 30 27.9585Z" fill="white"/>
<path d="M27.5 24.2085H30C30.3315 24.2085 30.6495 24.0768 30.8839 23.8424C31.1183 23.608 31.25 23.29 31.25 22.9585C31.25 22.627 31.1183 22.309 30.8839 22.0746C30.6495 21.8402 30.3315 21.7085 30 21.7085H27.5C27.1685 21.7085 26.8505 21.8402 26.6161 22.0746C26.3817 22.309 26.25 22.627 26.25 22.9585C26.25 23.29 26.3817 23.608 26.6161 23.8424C26.8505 24.0768 27.1685 24.2085 27.5 24.2085Z" fill="white"/>
</svg>
