<svg width="40" height="40" viewBox="0 0 40 40" fill="none" xmlns="http://www.w3.org/2000/svg">
<g clip-path="url(#clip0_2001_164)">
<path d="M30.0004 2.67978C33.0169 4.42149 35.5263 6.92084 37.2801 9.93038C39.0339 12.9399 39.9712 16.3553 39.9993 19.8385C40.0275 23.3216 39.1454 26.7517 37.4405 29.7892C35.7356 32.8267 33.2669 35.3662 30.2789 37.1564C27.2908 38.9466 23.887 39.9254 20.4044 39.9959C16.9219 40.0664 13.4813 39.2261 10.4232 37.5583C7.36521 35.8904 4.7958 33.4528 2.96937 30.4868C1.14294 27.5208 0.12282 24.1292 0.0100004 20.6478L0 19.9998L0.0100004 19.3518C0.122008 15.8978 1.12711 12.5317 2.92731 9.58177C4.72752 6.63183 7.2614 4.19869 10.2819 2.51955C13.3024 0.840411 16.7065 -0.0274216 20.1623 0.000660491C23.618 0.0287425 27.0075 0.95178 30.0004 2.67978ZM20.0002 7.99978C19.5104 7.99985 19.0376 8.1797 18.6715 8.50521C18.3054 8.83073 18.0715 9.27928 18.0142 9.76578L18.0002 9.99978V19.9998L18.0182 20.2618C18.0638 20.6088 18.1997 20.9377 18.4122 21.2158L18.5862 21.4158L24.5863 27.4158L24.7743 27.5798C25.1251 27.8519 25.5564 27.9996 26.0003 27.9996C26.4443 27.9996 26.8756 27.8519 27.2263 27.5798L27.4143 27.4138L27.5803 27.2258C27.8525 26.875 28.0002 26.4437 28.0002 25.9998C28.0002 25.5558 27.8525 25.1245 27.5803 24.7738L27.4143 24.5858L22.0003 19.1698V9.99978L21.9863 9.76578C21.929 9.27928 21.6951 8.83073 21.329 8.50521C20.9629 8.1797 20.4901 7.99985 20.0002 7.99978Z" fill="white"/>
</g>
<defs>
<clipPath id="clip0_2001_164">
<rect width="40" height="40" fill="white"/>
</clipPath>
</defs>
</svg>
