<svg width="48" height="48" viewBox="0 0 48 48" fill="none" xmlns="http://www.w3.org/2000/svg">
<path d="M22.4625 25.6311L5.43103 42.7633L4.7242 42.0607L5.43102 42.7633C5.42739 42.767 5.42598 42.7696 5.42506 42.7719C5.42387 42.7749 5.42284 42.7792 5.42284 42.7844C5.42284 42.7897 5.42387 42.794 5.42506 42.7969C5.42598 42.7992 5.42739 42.8019 5.43103 42.8055M22.4625 25.6311L5.43103 42.8055M22.4625 25.6311L22.4961 25.6649M22.4625 25.6311L22.4961 25.6649M5.43103 42.8055C5.43464 42.8091 5.43657 42.8099 5.43723 42.8102C5.43857 42.8107 5.44077 42.8113 5.44367 42.8113C5.44657 42.8113 5.44878 42.8107 5.45011 42.8102C5.45078 42.8099 5.45271 42.8091 5.45632 42.8055L22.4961 25.6649M5.43103 42.8055L22.4961 25.6649M42.9918 5.04796L25.3499 22.7943L25.3163 22.7605L42.9665 5.00578C42.9701 5.0022 42.972 5.00141 42.9727 5.00113L42.9727 5.00112C42.9741 5.00058 42.9763 5 42.9792 5C42.9821 5 42.9843 5.00058 42.9856 5.00112C42.9863 5.00139 42.9882 5.00215 42.9918 5.00578C42.9955 5.00944 42.9969 5.01207 42.9978 5.01435C42.999 5.01731 43 5.02162 43 5.02687C43 5.03213 42.999 5.03643 42.9978 5.03939C42.9969 5.04167 42.9955 5.0443 42.9918 5.04796ZM5.03348 5.19449L22.4961 22.7605L22.4625 22.7943L5.00818 5.23666C5.00455 5.233 5.00314 5.23037 5.00222 5.22809C5.00103 5.22514 5 5.22083 5 5.21557C5 5.21032 5.00103 5.20601 5.00222 5.20305C5.00314 5.20077 5.00455 5.19814 5.00818 5.19449C5.01175 5.1909 5.01368 5.19011 5.01437 5.18983L5.01439 5.18982C5.01572 5.18928 5.01793 5.1887 5.02083 5.1887C5.02373 5.1887 5.02594 5.18928 5.02727 5.18982L5.0273 5.18983C5.02799 5.19011 5.02991 5.1909 5.03348 5.19449ZM23.9062 24.1789L23.9398 24.2127L23.9062 24.2465L23.8726 24.2127L23.9062 24.1789ZM25.3163 25.6649L25.3499 25.6311L42.569 42.952C42.5726 42.9557 42.574 42.9583 42.5749 42.9606C42.5761 42.9636 42.5772 42.9679 42.5772 42.9731C42.5772 42.9784 42.5761 42.9827 42.5749 42.9856C42.5747 42.9863 42.5743 42.987 42.5739 42.9878C42.573 42.9896 42.5715 42.9916 42.569 42.9942C42.5654 42.9978 42.5634 42.9986 42.5628 42.9989C42.5614 42.9994 42.5592 43 42.5563 43C42.5534 43 42.5512 42.9994 42.5499 42.9989C42.5492 42.9986 42.5473 42.9978 42.5437 42.9942L25.3163 25.6649Z" stroke="#1E1E1E" stroke-width="2" stroke-linejoin="round"/>
</svg>
