<svg width="28" height="28" viewBox="0 0 28 28" fill="none" xmlns="http://www.w3.org/2000/svg">
<path d="M26 4.57143V23.4286C26 24.8482 24.8482 26 23.4286 26H18.8589V16.5071H22.1054L22.5714 12.8857H18.8589V10.5714C18.8589 9.52143 19.1482 8.80893 20.6536 8.80893H22.5714V5.57321C22.2393 5.53036 21.1036 5.42857 19.775 5.42857C17.0107 5.42857 15.1143 7.11607 15.1143 10.2179V12.8911H11.8571V16.5125H15.1196V26H4.57143C3.15179 26 2 24.8482 2 23.4286V4.57143C2 3.15179 3.15179 2 4.57143 2H23.4286C24.8482 2 26 3.15179 26 4.57143Z" fill="#00AEEF"/>
</svg>
