<svg width="40" height="40" viewBox="0 0 40 40" fill="none" xmlns="http://www.w3.org/2000/svg">
<g clip-path="url(#clip0_2001_113)">
<path d="M36.9884 30.5569C34.9221 26.3792 32.162 22.3836 29.2861 18.8159C29.7023 17.1959 30.0631 15.6576 30.3769 14.2167C31.7791 14.0877 32.9237 13.0643 33.2386 11.7235C34.795 11.5156 36.3824 11.3665 37.9936 11.2887C39.2781 13.9273 40 16.8883 40 20.0148C40 23.8812 38.896 27.494 36.9884 30.5569ZM30.1341 2.77904C30.0437 3.65832 29.841 5.39889 29.4487 7.79304C28.0317 8.07161 26.9453 9.27346 26.8381 10.7437C25.5211 11.0493 24.2379 11.387 22.9937 11.749C22.4317 11.1727 21.8823 10.6212 21.3514 10.0986C20.2093 8.97446 19.1007 7.92946 18.0546 6.97361C18.2293 6.57518 18.3276 6.13618 18.3276 5.67389C18.3276 5.12261 18.1887 4.60332 17.9453 4.14789C19.0601 2.68675 20.3057 1.31789 21.693 0.0873209C24.7533 0.345035 27.6193 1.29461 30.1341 2.77904ZM16.3854 2.70061C15.9846 2.52346 15.5426 2.42332 15.077 2.42332C14.4543 2.42332 13.8739 2.60246 13.379 2.90732C12.8197 2.44546 12.3274 2.04761 11.9184 1.72232C14.0027 0.79775 16.273 0.219892 18.6564 0.0610352C17.8476 0.900464 17.0926 1.78446 16.3854 2.70061ZM15.077 8.92461C15.6304 8.92461 16.1514 8.78504 16.608 8.54004C17.8891 9.71289 19.2703 11.026 20.695 12.4575C17.3573 13.5437 14.3524 14.7705 11.8023 15.9432C12.6203 13.6195 13.634 11.2269 14.8861 8.91489C14.9496 8.91861 15.0124 8.92461 15.077 8.92461ZM7.82543 22.0575C7.701 22.5922 7.58471 23.1193 7.47586 23.638C7.05643 22.7643 6.684 21.9212 6.35214 21.1155C6.97329 20.7639 7.63243 20.4006 8.33057 20.0296C8.14629 20.7242 7.978 21.4023 7.82543 22.0575ZM8.502 30.4136C8.61629 30.4033 8.72914 30.3876 8.83986 30.3658C10.8846 33.4909 13.4974 36.722 16.8286 39.7623C13.5659 39.2403 10.5639 37.9273 8.027 36.0253C8.062 35.1146 8.17114 33.0938 8.502 30.4136ZM10.6723 29.292C11.1613 28.7232 11.4589 27.9853 11.4589 27.178C11.4589 25.854 10.6621 24.7145 9.524 24.2082C9.64071 23.6459 9.76614 23.074 9.90157 22.494C10.18 21.301 10.5119 20.0315 10.9027 18.7178C11.061 18.6403 11.2193 18.5629 11.3804 18.4853C14.3581 17.0522 18.0993 15.4739 22.3501 14.1557C23.8876 15.7667 25.4477 17.4998 26.9623 19.328C25.3743 25.2955 23.0394 32.2835 19.634 39.4012C15.8131 36.1785 12.8941 32.6718 10.6723 29.292ZM24.6497 13.4847C25.5416 13.2402 26.4526 13.0092 27.3803 12.7947C27.627 13.1607 27.9477 13.4717 28.3187 13.7115C28.1054 14.694 27.8694 15.7236 27.608 16.795C26.6146 15.6323 25.621 14.5255 24.6497 13.4847ZM36.8369 9.23089C35.5474 9.31732 34.2743 9.44661 33.0211 9.61275C32.7139 8.95446 32.1937 8.41604 31.5481 8.08646C31.8176 6.43889 31.9994 5.09404 32.1177 4.11504C33.9717 5.53161 35.5723 7.26332 36.8369 9.23089ZM9.84529 2.79104C10.3159 3.15718 11.0689 3.75375 12.0309 4.55032C11.901 4.90104 11.8264 5.27846 11.8264 5.67375C11.8264 6.63732 12.2501 7.50175 12.9184 8.09761C11.2984 11.1245 10.0713 14.2653 9.14314 17.2218C7.84857 17.8713 6.65757 18.5088 5.57871 19.1136C3.79871 14.1753 3.31029 10.3149 3.19771 9.17832C4.88643 6.56904 7.166 4.37689 9.84529 2.79104ZM1.52386 12.3603C1.89757 14.3387 2.55857 17.0582 3.71429 20.19C2.19486 21.0936 0.991714 21.8753 0.148286 22.4465C0.051 21.6492 0 20.8379 0 20.0148C0 17.3048 0.542857 14.7195 1.52386 12.3603ZM0.565 24.7383C1.26671 24.2446 2.618 23.3272 4.503 22.194C4.88014 23.0949 5.30686 24.0393 5.78786 25.0158C5.27357 25.5909 4.95771 26.3473 4.95771 27.178C4.95771 28.3119 5.54214 29.3105 6.42457 29.8925C6.20029 31.6558 6.06971 33.1525 5.994 34.2769C3.375 31.7045 1.45957 28.419 0.565 24.7383ZM21.7271 39.9393C24.8189 33.4102 27.03 26.9989 28.6017 21.3696C31.316 24.862 33.7867 28.6419 35.5831 32.536C32.2533 36.6716 27.3151 39.459 21.7271 39.9393Z" fill="white"/>
</g>
<defs>
<clipPath id="clip0_2001_113">
<rect width="40" height="40" fill="white"/>
</clipPath>
</defs>
</svg>
