<svg width="28" height="28" viewBox="0 0 28 28" fill="none" xmlns="http://www.w3.org/2000/svg">
<path d="M23.75 2H4.25C3.0125 2 2 3.0125 2 4.25V23.75C2 24.9875 3.0125 26 4.25 26H23.75C24.9875 26 26 24.9875 26 23.75V4.25C26 3.0125 24.9875 2 23.75 2ZM11 21.5H8V11H11V21.5ZM9.5 9.5C9.10218 9.5 8.72064 9.34196 8.43934 9.06066C8.15804 8.77936 8 8.39782 8 8C8 7.60218 8.15804 7.22064 8.43934 6.93934C8.72064 6.65804 9.10218 6.5 9.5 6.5C9.89782 6.5 10.2794 6.65804 10.5607 6.93934C10.842 7.22064 11 7.60218 11 8C11 8.39782 10.842 8.77936 10.5607 9.06066C10.2794 9.34196 9.89782 9.5 9.5 9.5ZM21.5 21.5H18.5V15.5C18.5 15.1022 18.342 14.7206 18.0607 14.4393C17.7794 14.158 17.3978 14 17 14C16.6022 14 16.2206 14.158 15.9393 14.4393C15.658 14.7206 15.5 15.1022 15.5 15.5V21.5H12.5V11H15.5V12.8615C16.118 12.0125 17.066 11 18.125 11C19.991 11 21.5 12.6785 21.5 14.75V21.5Z" fill="#00AEEF"/>
</svg>
