<svg width="70" height="44" viewBox="0 0 70 44" fill="none" xmlns="http://www.w3.org/2000/svg">
<g clip-path="url(#clip0_86_148)">
<path d="M54.9101 0.50291C46.8701 0.28041 40.0201 6.44291 39.4351 14.4654C38.7876 23.3229 45.7801 30.7079 54.5001 30.7079C54.5001 30.7079 54.5001 34.6629 51.7576 39.2129C50.2826 41.6604 52.9851 44.4879 55.5176 43.1629C63.0726 39.2104 71.1301 30.9854 69.6076 15.6004C68.7976 7.44041 62.9951 0.72541 54.9101 0.50291ZM15.7251 0.50291C7.68511 0.28041 0.835115 6.44291 0.250115 14.4654C-0.397385 23.3229 6.59511 30.7079 15.3151 30.7079C15.3151 30.7079 15.3151 34.6629 12.5726 39.2129C11.0976 41.6604 13.8001 44.4879 16.3326 43.1629C23.8876 39.2104 31.9451 30.9854 30.4226 15.6004C29.6101 7.44041 23.8101 0.72541 15.7251 0.50291Z" fill="#00AEEF"/>
</g>
<defs>
<clipPath id="clip0_86_148">
<rect width="70" height="44" fill="white"/>
</clipPath>
</defs>
</svg>
