<svg width="40" height="40" viewBox="0 0 40 40" fill="none" xmlns="http://www.w3.org/2000/svg">
<path d="M37.466 7.67838L20.4015 0.0896922C20.2758 0.0306252 20.1388 0 19.9999 0C19.8611 0 19.724 0.0306252 19.5984 0.0896922L2.53392 7.67838C2.35747 7.75536 2.20687 7.88145 2.10009 8.04163C1.9933 8.20181 1.93483 8.38931 1.93164 8.5818V13.9621C1.93164 23.8395 7.83395 35.8047 19.6386 39.9403C19.8729 40.0199 20.127 40.0199 20.3613 39.9403C32.1659 35.8047 38.0682 23.8395 38.0682 13.9621V8.5818C38.0651 8.38931 38.0066 8.20181 37.8998 8.04163C37.793 7.88145 37.6424 7.75536 37.466 7.67838ZM29.4115 14.3235L18.8115 27.8185C18.6574 28.0131 18.464 28.173 18.244 28.2878C18.0241 28.4026 17.7823 28.4698 17.5346 28.485L17.4302 28.4891C16.9635 28.4883 16.516 28.3028 16.1855 27.9731L10.7249 22.5125C10.3956 22.1823 10.2109 21.7349 10.2114 21.2686C10.212 20.8023 10.3978 20.3554 10.7279 20.0261C11.058 19.6967 11.5054 19.512 11.9717 19.5126C12.438 19.5132 12.885 19.699 13.2143 20.0291L17.2736 24.0884L26.6491 12.1533C26.9422 11.802 27.3606 11.5788 27.8156 11.531C28.2705 11.4832 28.7262 11.6146 29.0859 11.8972C29.4457 12.1799 29.6811 12.5916 29.7422 13.0449C29.8034 13.4983 29.6855 13.9576 29.4135 14.3255L29.4115 14.3235Z" fill="white"/>
</svg>
