<svg width="28" height="28" viewBox="0 0 28 28" fill="none" xmlns="http://www.w3.org/2000/svg">
<rect x="2" y="2" width="24" height="24" rx="2" fill="white"/>
<path fill-rule="evenodd" clip-rule="evenodd" d="M20.3427 7.09578C20.5394 7.01097 20.7547 6.98172 20.9662 7.01107C21.1777 7.04043 21.3777 7.12731 21.5453 7.26267C21.7129 7.39804 21.842 7.57694 21.9192 7.78076C21.9964 7.98458 22.0188 8.20587 21.9842 8.42158L20.1787 19.6387C20.0035 20.7207 18.8445 21.3412 17.8757 20.8023C17.0653 20.3514 15.8616 19.6567 14.779 18.9318C14.2376 18.5689 12.5794 17.407 12.7832 16.5802C12.9583 15.8733 15.7446 13.2168 17.3367 11.6374C17.9616 11.0169 17.6766 10.659 16.9387 11.2297C15.1061 12.6469 12.1639 14.8019 11.1911 15.4085C10.3329 15.9434 9.88552 16.0348 9.35056 15.9434C8.37458 15.7771 7.46945 15.5194 6.7307 15.2055C5.73243 14.7815 5.78099 13.3758 6.72991 12.9665L20.3427 7.09578Z" fill="#1E1E1E"/>
</svg>
