<svg width="28" height="28" viewBox="0 0 28 28" fill="none" xmlns="http://www.w3.org/2000/svg">
<path d="M5.42857 2C3.5375 2 2 3.5375 2 5.42857V22.5714C2 24.4625 3.5375 26 5.42857 26H22.5714C24.4625 26 26 24.4625 26 22.5714V5.42857C26 3.5375 24.4625 2 22.5714 2H5.42857ZM21.3446 6.5L15.7839 12.8536L22.325 21.5H17.2036L13.1964 16.2554L8.60536 21.5H6.06071L12.0071 14.7018L5.73393 6.5H10.9839L14.6107 11.2946L18.8 6.5H21.3446ZM19.3196 19.9786L10.2179 7.94107H8.70179L17.9054 19.9786H19.3143H19.3196Z" fill="#00AEEF"/>
</svg>
