<svg width="40" height="40" viewBox="0 0 40 40" fill="none" xmlns="http://www.w3.org/2000/svg">
<g clip-path="url(#clip0_2001_99)">
<path d="M11.4651 16.4912C13.5194 16.4912 15.4895 15.6752 16.9421 14.2226C18.3947 12.77 19.2107 10.7999 19.2107 8.74562C19.2107 6.69135 18.3947 4.72122 16.9421 3.26864C15.4895 1.81605 13.5194 1 11.4651 1C9.41084 1 7.44071 1.81605 5.98813 3.26864C4.53554 4.72122 3.71949 6.69135 3.71949 8.74562C3.71949 10.7999 4.53554 12.77 5.98813 14.2226C7.44071 15.6752 9.41084 16.4912 11.4651 16.4912ZM28.8927 16.4912C30.4334 16.4912 31.911 15.8792 33.0005 14.7898C34.0899 13.7003 34.702 12.2227 34.702 10.682C34.702 9.14132 34.0899 7.66373 33.0005 6.57429C31.911 5.48485 30.4334 4.87281 28.8927 4.87281C27.352 4.87281 25.8744 5.48485 24.785 6.57429C23.6956 7.66373 23.0835 9.14132 23.0835 10.682C23.0835 12.2227 23.6956 13.7003 24.785 14.7898C25.8744 15.8792 27.352 16.4912 28.8927 16.4912ZM4.20359 20.364C3.04807 20.364 1.93987 20.8231 1.12279 21.6402C0.30571 22.4572 -0.15332 23.5654 -0.15332 24.721V25.2051C-0.15332 25.2051 -0.15332 33.9189 11.4651 33.9189C14.1567 33.9189 16.2248 33.4522 17.8126 32.7319C17.4545 31.547 17.2731 30.3157 17.2743 29.0779C17.2743 25.8692 18.4749 22.9414 20.45 20.7184C19.9065 20.4816 19.3195 20.361 18.7266 20.364H4.20359ZM23.6199 22.254C23.7644 22.7546 23.8064 23.2793 23.7433 23.7965C23.6803 24.3138 23.5135 24.813 23.253 25.2642C22.9924 25.7155 22.6435 26.1096 22.2271 26.4228C21.8107 26.736 21.3354 26.962 20.8296 27.0872L19.6987 27.368C19.5165 28.5276 19.5204 29.7088 19.7103 30.8671L20.756 31.1188C21.2664 31.2418 21.7464 31.4672 22.167 31.7814C22.5876 32.0957 22.9399 32.4921 23.2025 32.9467C23.4651 33.4013 23.6326 33.9045 23.6947 34.4258C23.7568 34.9472 23.7122 35.4756 23.5638 35.9792L23.2017 37.2011C24.0537 37.9485 25.0219 38.5566 26.0772 38.9864L27.0319 37.9814C27.3936 37.6009 27.829 37.2979 28.3115 37.0909C28.794 36.8838 29.3136 36.7771 29.8387 36.7771C30.3637 36.7771 30.8833 36.8838 31.3658 37.0909C31.8484 37.2979 32.2837 37.6009 32.6455 37.9814L33.6118 39C34.6592 38.5729 35.6289 37.9755 36.4815 37.2321L36.0981 35.9037C35.9536 35.4029 35.9117 34.8781 35.9749 34.3608C36.0381 33.8434 36.205 33.3442 36.4658 32.8929C36.7265 32.4416 37.0756 32.0476 37.4922 31.7344C37.9089 31.4213 38.3844 31.1954 38.8904 31.0704L40.0193 30.7896C40.2015 29.6301 40.1976 28.4489 40.0077 27.2906L38.962 27.0388C38.4518 26.9157 37.972 26.6901 37.5516 26.3758C37.1312 26.0614 36.7792 25.665 36.5167 25.2104C36.2543 24.7558 36.087 24.2527 36.0251 23.7315C35.9631 23.2103 36.0077 22.6819 36.1562 22.1785L36.5164 20.9566C35.6639 20.2066 34.6928 19.6033 33.6427 19.1712L32.6881 20.1743C32.3263 20.5551 31.8908 20.8584 31.4081 21.0656C30.9254 21.2728 30.4056 21.3797 29.8803 21.3797C29.355 21.3797 28.8352 21.2728 28.3525 21.0656C27.8698 20.8584 27.4343 20.5551 27.0725 20.1743L26.1082 19.1577C25.0548 19.5837 24.0866 20.184 23.2365 20.9256L23.6199 22.254ZM29.8609 31.9825C28.3118 31.9825 27.0532 30.6831 27.0532 29.0779C27.0532 27.4745 28.3118 26.1733 29.8609 26.1733C31.4101 26.1733 32.6687 27.4745 32.6687 29.0779C32.6687 30.6831 31.4101 31.9825 29.8609 31.9825Z" fill="#F2F2F2"/>
</g>
<defs>
<clipPath id="clip0_2001_99">
<rect width="40" height="40" fill="white"/>
</clipPath>
</defs>
</svg>
