<svg width="486" height="188" viewBox="0 0 486 188" fill="none" xmlns="http://www.w3.org/2000/svg">
<path d="M0 152.102V121.876L75.575 2.48185H101.562V44.3187H86.182L38.5388 119.926V121.345H145.935V152.102H0ZM86.8891 184.011V142.884L87.5962 129.499V2.48185H123.483V184.011H86.8891Z" fill="#00AEEF"/>
<path d="M242.414 188C227.211 187.941 214.129 184.189 203.168 176.743C192.267 169.298 183.87 158.513 177.977 144.39C172.143 130.267 169.255 113.279 169.314 93.4239C169.314 73.6282 172.231 56.7575 178.065 42.8119C183.958 28.8663 192.355 18.2593 203.257 10.991C214.217 3.66368 227.27 0 242.414 0C257.559 0 270.582 3.66368 281.484 10.991C292.444 18.3184 300.871 28.9549 306.764 42.9005C312.656 56.7871 315.573 73.6282 315.514 93.4239C315.514 113.338 312.568 130.356 306.675 144.479C300.841 158.602 292.474 169.386 281.572 176.832C270.67 184.277 257.618 188 242.414 188ZM242.414 156.179C252.786 156.179 261.065 150.95 267.252 140.49C273.44 130.031 276.504 114.342 276.445 93.4239C276.445 79.6555 275.031 68.1917 272.202 59.0325C269.433 49.8733 265.485 42.9892 260.358 38.38C255.29 33.7709 249.309 31.4663 242.414 31.4663C232.102 31.4663 223.852 36.6368 217.665 46.9778C211.477 57.3189 208.354 72.8009 208.295 93.4239C208.295 107.369 209.68 119.011 212.45 128.347C215.278 137.624 219.256 144.597 224.382 149.265C229.509 153.875 235.52 156.179 242.414 156.179Z" fill="#00AEEF"/>
<path d="M340.065 152.102V121.876L415.64 2.48185H441.627V44.3187H426.247L378.604 119.926V121.345H486V152.102H340.065ZM426.954 184.011V142.884L427.661 129.499V2.48185H463.548V184.011H426.954Z" fill="#00AEEF"/>
</svg>
