<svg width="376" height="472" viewBox="0 0 376 472" fill="none" xmlns="http://www.w3.org/2000/svg">
<path d="M253.419 472C252.757 472 252.092 471.828 251.498 471.489L1.92303 328.016C0.73426 327.331 0 326.066 0 324.695C0 323.327 0.732021 322.06 1.92303 321.377L74.6554 279.514C75.8419 278.829 77.3083 278.829 78.4994 279.512L328.077 422.987C329.266 423.672 330 424.938 330 426.308C330 427.676 329.268 428.943 328.077 429.626L255.342 471.487C254.747 471.828 254.084 472 253.419 472ZM11.5362 324.691L253.417 463.743L318.462 426.31L76.5785 287.258L11.5362 324.691Z" fill="#006C94"/>
<path d="M120 353C118.343 353 117 351.627 117 349.933V253.067C117 251.373 118.343 250 120 250C121.657 250 123 251.373 123 253.067V349.933C122.998 351.624 121.655 353 120 353Z" fill="#396CAA"/>
<path d="M106 242V307.268C106 309.504 107.464 311.737 110.393 313.442C116.252 316.853 125.748 316.853 131.607 313.442C134.536 311.737 136 309.504 136 307.268V242H106Z" fill="url(#paint0_radial_132_551)"/>
<path d="M106 252.022V273.977C114.804 278.007 127.196 278.009 136 273.977V252.02C127.196 247.993 114.804 247.993 106 252.022Z" fill="#396CAA"/>
<path d="M145 151H96V252.036C96 255.61 98.3927 259.184 103.176 261.91C112.742 267.363 128.258 267.363 137.824 261.91C142.609 259.184 145 255.608 145 252.034V151Z" fill="url(#paint1_radial_132_551)"/>
<path d="M117 298.407C117 301.616 114.763 302.917 112 301.313C109.24 299.708 107 295.805 107 292.593C107 289.384 109.237 288.083 112 289.687C114.763 291.292 117 295.195 117 298.407Z" fill="#D4ECFF"/>
<path d="M215 408C213.343 408 212 406.627 212 404.933V308.067C212 306.373 213.343 305 215 305C216.657 305 218 306.373 218 308.067V404.933C218 406.627 216.657 408 215 408Z" fill="#396CAA"/>
<path d="M201 297V362.268C201 364.502 202.464 366.737 205.393 368.442C211.252 371.853 220.75 371.853 226.607 368.442C229.536 366.737 231 364.504 231 362.268V297H201Z" fill="url(#paint2_radial_132_551)"/>
<path d="M201 307.022V328.977C209.804 333.006 222.196 333.008 231 328.979V307.022C222.196 302.993 209.801 302.993 201 307.022Z" fill="#396CAA"/>
<path d="M240 206H191V307.036C191 310.61 193.393 314.184 198.176 316.91C207.742 322.363 223.258 322.363 232.824 316.91C237.609 314.184 240 310.608 240 307.036V206Z" fill="url(#paint3_radial_132_551)"/>
<path d="M212 353.407C212 356.616 209.762 357.917 206.999 356.313C204.238 354.708 202 350.805 202 347.593C202 344.384 204.238 343.083 206.999 344.687C209.76 346.295 212 350.197 212 353.407Z" fill="#D4ECFF"/>
<path d="M25 76.4259L91 39C91 39 88.5181 76.3482 88.5181 76.4259C88.5181 76.5036 50.6028 88 50.6028 88L25 76.4259Z" fill="#5793CE"/>
<path d="M376 292.337C376 265.979 357.507 233.929 334.693 220.749C329.728 217.88 324.989 216.207 320.579 215.514C314.003 180.926 289.948 144.194 261.266 127.625C252.64 122.642 244.436 119.978 236.996 119.406C233.08 77.4816 203.948 29.8371 168.569 9.39962C150.09 -1.27689 133.322 -2.5399 120.951 3.99788L120.953 3.96669L120.352 4.31197C120.036 4.48795 119.722 4.66837 119.413 4.85325L80.9439 27.5873L93.7268 37.6891C82.2507 42.7078 75 55.5828 75 74.617C75 109.716 99.6284 152.4 130.009 169.951L317.551 303.949L323.333 343L363.858 319.119C363.894 319.099 363.932 319.076 363.967 319.054L364.21 318.912L364.203 318.905C371.496 314.512 376 305.335 376 292.337Z" fill="url(#paint4_radial_132_551)"/>
<path d="M77 59L166 7.52234C148.723 -1.39678 133.112 -2.13431 121.405 3.98578L121.407 3.95468L120.801 4.29902C120.482 4.47452 120.166 4.65445 119.854 4.83883L81.0773 27.5109L93.9625 37.5852C85.8751 41.084 79.8813 48.4215 77 59Z" fill="#5793CE"/>
<path d="M239.404 212L304 174.078C292.922 154.907 277.664 138.162 260.775 128.405C258.539 127.115 256.333 125.985 254.161 125L172 173.067L239.404 212Z" fill="#5793CE"/>
<path d="M99 31.6687L127.608 48L180 17.4912C176.173 14.5522 172.245 11.8961 168.229 9.60415C161.885 5.98302 155.751 3.48705 149.921 2L99 31.6687Z" fill="#D4ECFF"/>
<path d="M297.767 162L246 192.151L264.005 212L311 184.572C307.284 176.707 302.817 169.101 297.767 162Z" fill="#D4ECFF"/>
<path d="M293.663 244.863C288.693 241.993 283.952 240.319 279.539 239.626C272.958 205.022 248.887 168.273 220.186 151.698C211.553 146.712 203.344 144.047 195.896 143.474C191.978 101.531 162.825 53.8654 127.421 33.4187C89.3477 11.4299 58.4816 29.2536 58.4816 73.2313C58.4816 74.7222 58.5239 76.2264 58.5952 77.7396C30.7544 64.8231 9 79.3775 9 112.366C9 147.481 33.6461 190.184 64.0488 207.743L293.663 340.353C316.494 353.537 335 342.849 335 316.481C335 290.113 316.491 258.049 293.663 244.863Z" fill="url(#paint5_linear_132_551)"/>
<path d="M59 77.377C58.9309 75.7729 58.8864 74.1736 58.8864 72.5908C58.8864 72.5245 58.8908 72.4607 58.8908 72.3944C43.5116 66.042 30.2955 68.8077 22 79C31.0105 71.1192 44.1131 70.0451 59 77.377Z" fill="white"/>
<path d="M298.446 241.031C293.452 238.159 288.684 236.484 284.248 235.79C277.633 201.159 253.436 164.382 224.586 147.794C215.908 142.805 207.656 140.137 200.172 139.564C196.233 97.5886 166.928 49.8859 131.34 29.4235C107.497 15.7141 86.469 17.4738 74 31.3883C86.7019 20.5783 106.149 20.1613 127.961 32.7041C163.547 53.1666 192.854 100.869 196.793 142.845C204.279 143.418 212.531 146.085 221.209 151.074C250.059 167.663 274.256 204.44 280.871 239.071C285.307 239.764 290.075 241.439 295.069 244.312C318.018 257.506 336.621 289.597 336.621 315.985C336.621 325.508 334.171 332.948 329.997 338C336.22 333.225 340 324.567 340 312.705C339.998 286.316 321.395 254.225 298.446 241.031Z" fill="white"/>
<path d="M54.2074 88.7082L71.4729 96.7145L70.5949 77.6996C70.5325 76.3645 70.4946 75.0383 70.4946 73.721C70.4946 56.7479 75.6177 44.442 84.9189 39.0681C94.2202 33.7009 107.441 35.4149 122.135 43.9004C153.74 62.153 181.312 106.582 184.907 145.051L185.813 154.742L195.516 155.489C201.479 155.946 208.008 158.203 214.925 162.2C240.028 176.697 262.655 210.384 268.725 242.302L270.245 250.293L278.278 251.55C281.478 252.054 284.892 253.34 288.424 255.382C307.708 266.52 324 294.742 324 317.013C324 325.347 321.689 331.463 317.66 333.79C313.636 336.113 307.185 335.061 299.967 330.893L70.2896 198.259C43.5713 182.831 21 143.724 21 112.865C21 100.755 24.5699 91.53 30.796 87.5536C33.3586 85.9199 36.4561 85.1041 39.9502 85.1041C44.1997 85.1063 49.0375 86.3099 54.2074 88.7082Z" fill="#00AEEF"/>
<path d="M54.2074 88.7082L71.4729 96.7145L70.5949 77.6996C70.5325 76.3645 70.4946 75.0383 70.4946 73.721C70.4946 56.7479 75.6177 44.442 84.9189 39.0681C94.2202 33.7009 107.441 35.4149 122.135 43.9004C153.74 62.153 181.312 106.582 184.907 145.051L185.813 154.742L195.516 155.489C201.479 155.946 208.008 158.203 214.925 162.2C240.028 176.697 262.655 210.384 268.725 242.302L270.245 250.293L278.278 251.55C281.478 252.054 284.892 253.34 288.424 255.382C307.708 266.52 324 294.742 324 317.013C324 325.347 321.689 331.463 317.66 333.79C313.636 336.113 307.185 335.061 299.967 330.893L70.2896 198.259C43.5713 182.831 21 143.724 21 112.865C21 100.755 24.5699 91.53 30.796 87.5536C33.3586 85.9199 36.4561 85.1041 39.9502 85.1041C44.1997 85.1063 49.0375 86.3099 54.2074 88.7082Z" fill="url(#paint6_linear_132_551)" fill-opacity="0.5"/>
<path d="M168 232L174 228.782L168.093 224L168 232Z" fill="white"/>
<path d="M150 149.898L155.893 147L156 150L150 149.898Z" fill="white"/>
<path d="M185.767 212L192 208.983L180 198L185.767 212Z" fill="white"/>
<path d="M172.265 228.651L143.623 211.843C142.17 210.989 140.996 208.84 141 207.042L141.093 174L175 193.899L174.907 226.941C174.9 228.739 173.718 229.504 172.265 228.651Z" fill="white"/>
<path d="M155.587 147.255L124.581 167.191C123.265 168.038 124.329 171.191 126.327 172.368L157.993 191.005L189.659 209.641C191.658 210.818 192.735 208.924 191.428 206.535L160.638 150.23C159.309 147.797 156.925 146.393 155.587 147.255Z" fill="white"/>
<path d="M166.265 231.651L137.623 214.843C136.17 213.989 134.996 211.84 135 210.042L135.093 177L169 196.899L168.907 229.941C168.902 231.739 167.718 232.504 166.265 231.651Z" fill="#F7941D"/>
<path d="M149.587 150.255L118.581 170.191C117.265 171.038 118.329 174.191 120.327 175.368L151.993 194.005L183.659 212.641C185.658 213.818 186.735 211.924 185.428 209.535L154.638 153.23C153.309 150.797 150.927 149.393 149.587 150.255Z" fill="#F7941D"/>
<defs>
<radialGradient id="paint0_radial_132_551" cx="0" cy="0" r="1" gradientUnits="userSpaceOnUse" gradientTransform="translate(104.139 304.054) scale(28.0336 28.2639)">
<stop stop-color="#699DD1"/>
<stop offset="0.2662" stop-color="#6396CC"/>
<stop offset="0.6412" stop-color="#5184BD"/>
<stop offset="1" stop-color="#396CAA"/>
</radialGradient>
<radialGradient id="paint1_radial_132_551" cx="0" cy="0" r="1" gradientUnits="userSpaceOnUse" gradientTransform="translate(87.7 272.085) scale(44.6813 44.1094)">
<stop stop-color="#699DD1"/>
<stop offset="0.2662" stop-color="#6396CC"/>
<stop offset="0.6412" stop-color="#5184BD"/>
<stop offset="1" stop-color="#396CAA"/>
</radialGradient>
<radialGradient id="paint2_radial_132_551" cx="0" cy="0" r="1" gradientUnits="userSpaceOnUse" gradientTransform="translate(199.137 359.053) scale(28.0334 28.2637)">
<stop stop-color="#699DD1"/>
<stop offset="0.2662" stop-color="#6396CC"/>
<stop offset="0.6412" stop-color="#5184BD"/>
<stop offset="1" stop-color="#396CAA"/>
</radialGradient>
<radialGradient id="paint3_radial_132_551" cx="0" cy="0" r="1" gradientUnits="userSpaceOnUse" gradientTransform="translate(182.698 327.084) scale(44.6815 44.1097)">
<stop stop-color="#699DD1"/>
<stop offset="0.2662" stop-color="#6396CC"/>
<stop offset="0.6412" stop-color="#5184BD"/>
<stop offset="1" stop-color="#396CAA"/>
</radialGradient>
<radialGradient id="paint4_radial_132_551" cx="0" cy="0" r="1" gradientUnits="userSpaceOnUse" gradientTransform="translate(225.499 171.502) scale(161.287 161.383)">
<stop stop-color="#415FAA"/>
<stop offset="0.2662" stop-color="#7AA5D3"/>
<stop offset="0.6412" stop-color="#5184BD"/>
<stop offset="1" stop-color="#396CAA"/>
</radialGradient>
<linearGradient id="paint5_linear_132_551" x1="8.99933" y1="185.003" x2="334.999" y2="185.003" gradientUnits="userSpaceOnUse">
<stop stop-color="#D4ECFF"/>
<stop offset="0.2385" stop-color="#D0EAFE"/>
<stop offset="0.4599" stop-color="#C5E2F9"/>
<stop offset="0.6745" stop-color="#B2D6F2"/>
<stop offset="0.8837" stop-color="#98C4E7"/>
<stop offset="1" stop-color="#86B8E0"/>
</linearGradient>
<linearGradient id="paint6_linear_132_551" x1="172.5" y1="36" x2="172.5" y2="335" gradientUnits="userSpaceOnUse">
<stop offset="0.3" stop-color="white" stop-opacity="0"/>
<stop offset="0.915" stop-color="white"/>
</linearGradient>
</defs>
</svg>
