<svg width="119" height="120" viewBox="0 0 119 120" fill="none" xmlns="http://www.w3.org/2000/svg">
<path fill-rule="evenodd" clip-rule="evenodd" d="M59 120C74.913 120 90.1742 113.679 101.426 102.426C112.679 91.1742 119 75.913 119 60C119 44.087 112.679 28.8258 101.426 17.5736C90.1742 6.32141 74.913 0 59 0C43.087 0 27.8258 6.32141 16.5736 17.5736C5.32141 28.8258 -1 44.087 -1 60C-1 75.913 5.32141 91.1742 16.5736 102.426C27.8258 113.679 43.087 120 59 120ZM87.35 47.1C88.3436 46.0337 88.8845 44.6233 88.8588 43.1661C88.8331 41.7088 88.2428 40.3184 87.2122 39.2878C86.1816 38.2572 84.7912 37.6669 83.3339 37.6412C81.8767 37.6155 80.4663 38.1564 79.4 39.15L49.625 68.925L40.475 59.775C39.4087 58.7814 37.9983 58.2405 36.5411 58.2662C35.0838 58.2919 33.6934 58.8822 32.6628 59.9128C31.6322 60.9434 31.0419 62.3338 31.0162 63.7911C30.9905 65.2483 31.5314 66.6587 32.525 67.725L45.65 80.85C46.7047 81.9034 48.1344 82.495 49.625 82.495C51.1156 82.495 52.5453 81.9034 53.6 80.85L87.35 47.1Z" fill="#00AEEF"/>
</svg>
